<svg xmlns="http://www.w3.org/2000/svg" viewBox="0 0 1440 560" preserveAspectRatio="xMaxYMid slice" aria-hidden="true"><defs><linearGradient id="nfSky" x1="0" y1="0" x2="1" y2="0"><stop offset="0" stop-color="#A4E0E4"/><stop offset=".36" stop-color="#4AAAB6"/><stop offset=".68" stop-color="#135B6D"/><stop offset="1" stop-color="#0A2B39"/></linearGradient><linearGradient id="nfSkyV" x1="0" y1="0" x2="0" y2="1"><stop offset="0" stop-color="#051B25" stop-opacity=".55"/><stop offset=".62" stop-color="#051B25" stop-opacity="0"/></linearGradient><radialGradient id="nfHorizon" cx=".66" cy=".88" r=".46"><stop offset="0" stop-color="#83E6DF" stop-opacity=".5"/><stop offset="1" stop-color="#83E6DF" stop-opacity="0"/></radialGradient><radialGradient id="nfMoonGlow"><stop offset="0" stop-color="#E9FFD2" stop-opacity=".55"/><stop offset=".35" stop-color="#E9FFD2" stop-opacity=".16"/><stop offset="1" stop-color="#E9FFD2" stop-opacity="0"/></radialGradient><radialGradient id="nfWinGlow"><stop offset="0" stop-color="#D8FF5A" stop-opacity=".55"/><stop offset="1" stop-color="#D8FF5A" stop-opacity="0"/></radialGradient><linearGradient id="nfCloudG" x1="0" y1="0" x2="0" y2="1"><stop offset="0" stop-color="#FFFFFF"/><stop offset="1" stop-color="#BFEDEE"/></linearGradient><linearGradient id="nfHillBack" x1="0" y1="0" x2="0" y2="1"><stop offset="0" stop-color="#135C6D"/><stop offset="1" stop-color="#0E4757"/></linearGradient><linearGradient id="nfHillFront" x1="0" y1="0" x2="0" y2="1"><stop offset="0" stop-color="#0D3F4D"/><stop offset="1" stop-color="#072630"/></linearGradient><linearGradient id="nfStrand" gradientUnits="userSpaceOnUse" x1="440" y1="0" x2="1120" y2="0"><stop offset="0" stop-color="#7CF0E6" stop-opacity="0"/><stop offset=".45" stop-color="#7CF0E6" stop-opacity=".8"/><stop offset="1" stop-color="#DCFF63"/></linearGradient><linearGradient id="nfStrandOut" gradientUnits="userSpaceOnUse" x1="1214" y1="0" x2="1440" y2="0"><stop offset="0" stop-color="#DCFF63"/><stop offset="1" stop-color="#7CF0E6" stop-opacity=".15"/></linearGradient><filter id="nfSoft" x="-50%" y="-50%" width="200%" height="200%"><feGaussianBlur stdDeviation="16"/></filter><filter id="nfBlur" x="-20%" y="-50%" width="140%" height="200%"><feGaussianBlur stdDeviation="5"/></filter><filter id="nfDot" x="-200%" y="-200%" width="500%" height="500%"><feGaussianBlur stdDeviation="2.2" result="b"/><feMerge><feMergeNode in="b"/><feMergeNode in="SourceGraphic"/></feMerge></filter></defs><rect width="1440" height="560" fill="url(#nfSky)"/><rect width="1440" height="560" fill="url(#nfSkyV)"/><rect width="1440" height="560" fill="url(#nfHorizon)"/><g fill="#E8FBF7"><circle cx="899" cy="70" r="0.9" opacity="0.39"/><circle cx="1069" cy="136" r="0.9" opacity="0.85"/><circle cx="812" cy="50" r="1.6" opacity="0.39"/><circle cx="713" cy="154" r="2.0" opacity="0.42"/><circle cx="819" cy="216" r="0.9" opacity="0.67"/><circle cx="957" cy="323" r="0.9" opacity="0.66"/><circle cx="747" cy="152" r="2.0" opacity="0.41"/><circle cx="887" cy="274" r="1.1" opacity="0.41"/><circle cx="1097" cy="81" r="0.9" opacity="0.65"/><circle cx="690" cy="42" r="1.1" opacity="0.62"/><circle cx="1065" cy="262" r="1.6" opacity="0.67"/><circle cx="1276" cy="238" r="1.1" opacity="0.4"/><circle cx="880" cy="176" r="1.3" opacity="0.75"/><circle cx="870" cy="324" r="0.9" opacity="0.63"/><circle cx="772" cy="129" r="1.6" opacity="0.58"/><circle cx="1086" cy="265" r="1.3" opacity="0.54"/><circle cx="920" cy="176" r="1.6" opacity="0.39"/><circle cx="715" cy="107" r="0.9" opacity="0.38"/><circle cx="1201" cy="222" r="1.6" opacity="0.51"/><circle cx="949" cy="229" r="0.9" opacity="0.87"/><circle cx="924" cy="211" r="1.6" opacity="0.38"/><circle cx="838" cy="144" r="1.6" opacity="0.39"/><circle cx="999" cy="192" r="1.1" opacity="0.8"/><circle cx="1347" cy="317" r="1.1" opacity="0.4"/><circle cx="761" cy="226" r="0.9" opacity="0.62"/><circle cx="1111" cy="104" r="0.9" opacity="0.43"/><circle cx="1068" cy="211" r="1.3" opacity="0.87"/><circle cx="1192" cy="182" r="2.0" opacity="0.71"/><circle cx="1337" cy="315" r="2.0" opacity="0.57"/><circle cx="959" cy="56" r="1.6" opacity="0.38"/><circle cx="694" cy="88" r="1.1" opacity="0.41"/><circle cx="1121" cy="55" r="2.0" opacity="0.43"/><circle cx="721" cy="135" r="0.9" opacity="0.39"/><circle cx="806" cy="139" r="1.3" opacity="0.88"/></g><circle cx="990" cy="120" r="130" fill="url(#nfMoonGlow)"/><circle cx="990" cy="120" r="30" fill="#F1FFE3"/><circle cx="981" cy="112" r="6" fill="#0B7285" opacity=".08"/><circle cx="999" cy="129" r="4" fill="#0B7285" opacity=".07"/><g fill="#FFFFFF" filter="url(#nfSoft)"><ellipse cx="300" cy="130" rx="230" ry="30" opacity=".16"/><ellipse cx="860" cy="215" rx="170" ry="22" opacity=".16"/><ellipse cx="1190" cy="270" rx="220" ry="26" opacity=".14"/></g><g opacity="0.34" fill="url(#nfCloudG)" transform="translate(820 300) scale(1.25)"><circle cx="-34" cy="-16" r="18"/><circle cx="-6" cy="-30" r="28"/><circle cx="26" cy="-20" r="21"/><circle cx="48" cy="-10" r="12"/><rect x="-52" y="-16" width="112" height="16" rx="8"/></g><g opacity="0.28" fill="url(#nfCloudG)" transform="translate(1300 318) scale(0.95)"><circle cx="-34" cy="-16" r="18"/><circle cx="-6" cy="-30" r="28"/><circle cx="26" cy="-20" r="21"/><circle cx="48" cy="-10" r="12"/><rect x="-52" y="-16" width="112" height="16" rx="8"/></g><g opacity="0.12" fill="#FFFFFF" transform="translate(210 420) scale(1.1)"><circle cx="-34" cy="-16" r="18"/><circle cx="-6" cy="-30" r="28"/><circle cx="26" cy="-20" r="21"/><circle cx="48" cy="-10" r="12"/><rect x="-52" y="-16" width="112" height="16" rx="8"/></g><path d="M540 560V476C730 436 880 446 1030 424C1160 404 1270 382 1440 392V560Z" fill="url(#nfHillBack)"/><g fill="#0E4757"><rect x="900" y="424" width="16" height="12"/><path d="M897 426L908 416L919 426Z"/><rect x="1300" y="376" width="18" height="14"/><path d="M1297 378L1309 367L1321 378Z"/></g><g fill="#D8FF5A"><rect x="905" y="428" width="5" height="4" opacity=".85"/><rect x="1306" y="381" width="5" height="4" opacity=".8"/></g><ellipse cx="1000" cy="446" rx="420" ry="34" fill="#E6FBFA" opacity=".16" filter="url(#nfSoft)"/><path d="M0 560V506C180 486 380 492 600 528L640 560Z" fill="#0E4757" opacity=".28"/><path d="M640 560C820 500 980 478 1110 470C1240 462 1340 468 1440 476V560Z" fill="url(#nfHillFront)"/><g fill="none" stroke="url(#nfStrand)" stroke-linecap="round" opacity=".45" filter="url(#nfBlur)"><path d="M430 250C700 210 880 360 1120 432" stroke-width="7.0"/><path d="M470 330C720 320 900 410 1120 446" stroke-width="5.1"/><path d="M520 176C760 146 940 300 1120 420" stroke-width="5.8"/><path d="M560 404C780 402 960 452 1120 458" stroke-width="4.5"/></g><g fill="none" stroke="url(#nfStrand)" stroke-linecap="round"><path d="M430 250C700 210 880 360 1120 432" stroke-width="2.2"/><path d="M470 330C720 320 900 410 1120 446" stroke-width="1.6"/><path d="M520 176C760 146 940 300 1120 420" stroke-width="1.8"/><path d="M560 404C780 402 960 452 1120 458" stroke-width="1.4"/></g><g fill="none" stroke="url(#nfStrandOut)" stroke-linecap="round" opacity=".45" filter="url(#nfBlur)"><path d="M1214 410C1290 372 1360 344 1460 338" stroke-width="5.8"/><path d="M1214 452C1300 444 1370 432 1460 440" stroke-width="4.5"/></g><g fill="none" stroke="url(#nfStrandOut)" stroke-linecap="round"><path d="M1214 410C1290 372 1360 344 1460 338" stroke-width="1.8"/><path d="M1214 452C1300 444 1370 432 1460 440" stroke-width="1.4"/></g><g fill="#EFFFB0" filter="url(#nfDot)"><circle cx="838.2" cy="319.9" r="4.4"/><circle cx="1008.8" cy="392.5" r="4.4"/><circle cx="942.2" cy="406.4" r="3.8"/><circle cx="842.5" cy="241.8" r="4.0"/><circle cx="1065.9" cy="383.2" r="4.0"/><circle cx="1011.3" cy="448.7" r="3.6"/></g><circle cx="1167" cy="428" r="110" fill="url(#nfWinGlow)"/><rect x="1188" y="364" width="13" height="30" fill="#0A2A36"/><rect x="1120" y="402" width="94" height="72" fill="#0F4250"/><rect x="1120" y="402" width="94" height="6" fill="#0A2A36" opacity=".5"/><path d="M1106 410L1167 356L1228 410Z" fill="#0A2A36"/><path d="M1106 410L1167 356L1228 410" fill="none" stroke="#2E97A5" stroke-width="2" stroke-linejoin="round" stroke-linecap="round"/><circle cx="1167" cy="390" r="7" fill="#E4FF7A"/><g fill="#EAFF9C"><rect x="1133" y="420" width="22" height="20" rx="3"/><rect x="1179" y="420" width="22" height="20" rx="3"/></g><g stroke="#0F4250" stroke-width="1.6"><path d="M1144 420V440M1133 430H1155M1190 420V440M1179 430H1201"/></g><rect x="1158" y="448" width="18" height="26" rx="3" fill="#0A2A36"/><circle cx="1172" cy="462" r="1.4" fill="#C6F432"/><circle cx="1120" cy="432" r="4" fill="#DCFF63" filter="url(#nfDot)"/><circle cx="1120" cy="446" r="3.2" fill="#DCFF63" filter="url(#nfDot)"/><g fill="#0A3440"><circle cx="1252" cy="446" r="17"/><circle cx="1266" cy="454" r="12"/><rect x="1250" y="452" width="4" height="20"/><circle cx="1080" cy="456" r="13"/><rect x="1078" y="460" width="4" height="14"/></g></svg>